<svg xmlns="http://www.w3.org/2000/svg" viewBox="0 0 260 260"><g transform="translate(0 0)"><g transform="rotate(-1.058 130 205)"><g opacity="0.14"><ellipse cx="130" cy="229" rx="45" ry="6" fill="#141B32" stroke="none" stroke-width="0" stroke-linecap="round" stroke-linejoin="round"/></g><g transform="translate(0 4)"><g transform="translate(130 216) scale(0.86 0.86) translate(-130 -216)"><g transform="translate(-0 0)"><g transform="rotate(-0.588 130 182)"><g transform="translate(86 157)"><g transform="rotate(-5.649 0 0)"><g transform="translate(0 0) scale(1 1) translate(-0 -0)"><path d="M-8,0 C-12,17 -12,35 -24,32 C-33,31 -28,23 -25,24 C-29,12 -44,23 -36,36 C-21,58 1,33 7,12 L9,0 Z" fill="#9670BA" stroke="#28304A" stroke-width="2.6" stroke-linecap="round" stroke-linejoin="round"/><path d="M-28,38 Q-15,46 -6,20" fill="none" stroke="#E5B8ED" stroke-width="3" stroke-linecap="round" stroke-linejoin="round"/><ellipse cx="-21" cy="39" rx="2.1" ry="2" fill="#FFE2E6" stroke="none" stroke-width="0" stroke-linecap="round" stroke-linejoin="round"/><ellipse cx="-14" cy="34" rx="2.1" ry="2" fill="#FFE2E6" stroke="none" stroke-width="0" stroke-linecap="round" stroke-linejoin="round"/><ellipse cx="-10" cy="27" rx="2" ry="2" fill="#FFE2E6" stroke="none" stroke-width="0" stroke-linecap="round" stroke-linejoin="round"/></g></g></g><g transform="translate(115 157)"><g transform="rotate(0.641 0 0)"><g transform="translate(0 0) scale(-1 1) translate(-0 -0)"><path d="M-8,0 C-12,17 -12,35 -24,32 C-33,31 -28,23 -25,24 C-29,12 -44,23 -36,36 C-21,58 1,33 7,12 L9,0 Z" fill="#9670BA" stroke="#28304A" stroke-width="2.6" stroke-linecap="round" stroke-linejoin="round"/><path d="M-28,38 Q-15,46 -6,20" fill="none" stroke="#E5B8ED" stroke-width="3" stroke-linecap="round" stroke-linejoin="round"/><ellipse cx="-21" cy="39" rx="2.1" ry="2" fill="#FFE2E6" stroke="none" stroke-width="0" stroke-linecap="round" stroke-linejoin="round"/><ellipse cx="-14" cy="34" rx="2.1" ry="2" fill="#FFE2E6" stroke="none" stroke-width="0" stroke-linecap="round" stroke-linejoin="round"/><ellipse cx="-10" cy="27" rx="2" ry="2" fill="#FFE2E6" stroke="none" stroke-width="0" stroke-linecap="round" stroke-linejoin="round"/></g></g></g><g transform="translate(144 157)"><g transform="rotate(-2.399 0 0)"><g transform="translate(0 0) scale(1 1) translate(-0 -0)"><path d="M-8,0 C-12,17 -12,35 -24,32 C-33,31 -28,23 -25,24 C-29,12 -44,23 -36,36 C-21,58 1,33 7,12 L9,0 Z" fill="#9670BA" stroke="#28304A" stroke-width="2.6" stroke-linecap="round" stroke-linejoin="round"/><path d="M-28,38 Q-15,46 -6,20" fill="none" stroke="#E5B8ED" stroke-width="3" stroke-linecap="round" stroke-linejoin="round"/><ellipse cx="-21" cy="39" rx="2.1" ry="2" fill="#FFE2E6" stroke="none" stroke-width="0" stroke-linecap="round" stroke-linejoin="round"/><ellipse cx="-14" cy="34" rx="2.1" ry="2" fill="#FFE2E6" stroke="none" stroke-width="0" stroke-linecap="round" stroke-linejoin="round"/><ellipse cx="-10" cy="27" rx="2" ry="2" fill="#FFE2E6" stroke="none" stroke-width="0" stroke-linecap="round" stroke-linejoin="round"/></g></g></g><g transform="translate(173 157)"><g transform="rotate(9.306 0 0)"><g transform="translate(0 0) scale(-1 1) translate(-0 -0)"><path d="M-8,0 C-12,17 -12,35 -24,32 C-33,31 -28,23 -25,24 C-29,12 -44,23 -36,36 C-21,58 1,33 7,12 L9,0 Z" fill="#9670BA" stroke="#28304A" stroke-width="2.6" stroke-linecap="round" stroke-linejoin="round"/><path d="M-28,38 Q-15,46 -6,20" fill="none" stroke="#E5B8ED" stroke-width="3" stroke-linecap="round" stroke-linejoin="round"/><ellipse cx="-21" cy="39" rx="2.1" ry="2" fill="#FFE2E6" stroke="none" stroke-width="0" stroke-linecap="round" stroke-linejoin="round"/><ellipse cx="-14" cy="34" rx="2.1" ry="2" fill="#FFE2E6" stroke="none" stroke-width="0" stroke-linecap="round" stroke-linejoin="round"/><ellipse cx="-10" cy="27" rx="2" ry="2" fill="#FFE2E6" stroke="none" stroke-width="0" stroke-linecap="round" stroke-linejoin="round"/></g></g></g><path d="M86,134 C83,96 105,83 131,82 C165,81 184,105 179,135 Q192,170 161,181 Q130,194 100,180 Q73,169 86,134 Z" fill="#CFA0E3" stroke="#28304A" stroke-width="3" stroke-linecap="round" stroke-linejoin="round"/><path d="M86,142 Q96,166 123,162 Q156,178 179,143 Q191,170 161,181 Q125,194 100,180 Q78,171 86,142 Z" fill="#AD81CB" stroke="none" stroke-width="0" stroke-linecap="round" stroke-linejoin="round"/><path d="M104,103 Q117,91 139,95" fill="none" stroke="#EFD0F4" stroke-width="4" stroke-linecap="round" stroke-linejoin="round"/><ellipse cx="108.147" cy="135" rx="4" ry="6" fill="#28304A" stroke="none" stroke-width="0" stroke-linecap="round" stroke-linejoin="round"/><ellipse cx="107.147" cy="133" rx="1.5" ry="1.5" fill="#FFFFFF" stroke="none" stroke-width="0" stroke-linecap="round" stroke-linejoin="round"/><path d="M104,121 L116,123" fill="none" stroke="#28304A" stroke-width="2" stroke-linecap="round" stroke-linejoin="round"/><ellipse cx="150.147" cy="135" rx="4" ry="6" fill="#28304A" stroke="none" stroke-width="0" stroke-linecap="round" stroke-linejoin="round"/><ellipse cx="149.147" cy="133" rx="1.5" ry="1.5" fill="#FFFFFF" stroke="none" stroke-width="0" stroke-linecap="round" stroke-linejoin="round"/><path d="M146,121 L158,123" fill="none" stroke="#28304A" stroke-width="2" stroke-linecap="round" stroke-linejoin="round"/><g transform="translate(132 147)"><path d="M-5,3 Q0,7 5,3" fill="none" stroke="#28304A" stroke-width="2.3" stroke-linecap="round" stroke-linejoin="round"/></g><path d="M83,132 Q75,72 130,72 Q188,71 185,132" fill="none" stroke="#28304A" stroke-width="10" stroke-linecap="round" stroke-linejoin="round"/><path d="M83,126 Q82,78 130,78 Q180,77 184,128" fill="none" stroke="#72D5CB" stroke-width="5" stroke-linecap="round" stroke-linejoin="round"/><rect x="75" y="115" width="19" height="33" rx="8" fill="#3D4058" stroke="#28304A" stroke-width="2.4" stroke-linecap="round" stroke-linejoin="round"/><rect x="172" y="115" width="19" height="33" rx="8" fill="#3D4058" stroke="#28304A" stroke-width="2.4" stroke-linecap="round" stroke-linejoin="round"/><rect x="77" y="121" width="9" height="20" rx="4" fill="#81E3D2" stroke="none" stroke-width="2.4" stroke-linecap="round" stroke-linejoin="round"/><rect x="181" y="121" width="8" height="20" rx="4" fill="#81E3D2" stroke="none" stroke-width="2.4" stroke-linecap="round" stroke-linejoin="round"/><path d="M182,143 Q183,163 152,159" fill="none" stroke="#28304A" stroke-width="2.5" stroke-linecap="round" stroke-linejoin="round"/><ellipse cx="151" cy="159" rx="5" ry="3" fill="#FFE19B" stroke="#28304A" stroke-width="2.4" stroke-linecap="round" stroke-linejoin="round"/><g transform="translate(153 104)"><g transform="translate(0 0) scale(0.7 0.7) translate(-0 -0)"><path d="M0,-10 L3,-3 L10,0 L3,3 L0,10 L-3,3 L-10,0 L-3,-3 Z" fill="#FFE098" stroke="none" stroke-width="0" stroke-linecap="round" stroke-linejoin="round"/></g></g><g transform="translate(92 173)"><g transform="rotate(-15.013 0 0)"><g transform="translate(0 0) scale(1 1) translate(-0 -0)"><path d="M-8,0 C-12,17 -12,35 -24,32 C-33,31 -28,23 -25,24 C-29,12 -44,23 -36,36 C-21,58 1,33 7,12 L9,0 Z" fill="#BE8DD8" stroke="#28304A" stroke-width="2.6" stroke-linecap="round" stroke-linejoin="round"/><path d="M-28,38 Q-15,46 -6,20" fill="none" stroke="#E5B8ED" stroke-width="3" stroke-linecap="round" stroke-linejoin="round"/><ellipse cx="-21" cy="39" rx="2.1" ry="2" fill="#FFE2E6" stroke="none" stroke-width="0" stroke-linecap="round" stroke-linejoin="round"/><ellipse cx="-14" cy="34" rx="2.1" ry="2" fill="#FFE2E6" stroke="none" stroke-width="0" stroke-linecap="round" stroke-linejoin="round"/><ellipse cx="-10" cy="27" rx="2" ry="2" fill="#FFE2E6" stroke="none" stroke-width="0" stroke-linecap="round" stroke-linejoin="round"/></g></g></g><g transform="translate(117 173)"><g transform="rotate(14.272 0 0)"><g transform="translate(0 0) scale(-1 1) translate(-0 -0)"><path d="M-8,0 C-12,17 -12,35 -24,32 C-33,31 -28,23 -25,24 C-29,12 -44,23 -36,36 C-21,58 1,33 7,12 L9,0 Z" fill="#BE8DD8" stroke="#28304A" stroke-width="2.6" stroke-linecap="round" stroke-linejoin="round"/><path d="M-28,38 Q-15,46 -6,20" fill="none" stroke="#E5B8ED" stroke-width="3" stroke-linecap="round" stroke-linejoin="round"/><ellipse cx="-21" cy="39" rx="2.1" ry="2" fill="#FFE2E6" stroke="none" stroke-width="0" stroke-linecap="round" stroke-linejoin="round"/><ellipse cx="-14" cy="34" rx="2.1" ry="2" fill="#FFE2E6" stroke="none" stroke-width="0" stroke-linecap="round" stroke-linejoin="round"/><ellipse cx="-10" cy="27" rx="2" ry="2" fill="#FFE2E6" stroke="none" stroke-width="0" stroke-linecap="round" stroke-linejoin="round"/></g></g></g><g transform="translate(142 173)"><g transform="rotate(-7.764 0 0)"><g transform="translate(0 0) scale(1 1) translate(-0 -0)"><path d="M-8,0 C-12,17 -12,35 -24,32 C-33,31 -28,23 -25,24 C-29,12 -44,23 -36,36 C-21,58 1,33 7,12 L9,0 Z" fill="#BE8DD8" stroke="#28304A" stroke-width="2.6" stroke-linecap="round" stroke-linejoin="round"/><path d="M-28,38 Q-15,46 -6,20" fill="none" stroke="#E5B8ED" stroke-width="3" stroke-linecap="round" stroke-linejoin="round"/><ellipse cx="-21" cy="39" rx="2.1" ry="2" fill="#FFE2E6" stroke="none" stroke-width="0" stroke-linecap="round" stroke-linejoin="round"/><ellipse cx="-14" cy="34" rx="2.1" ry="2" fill="#FFE2E6" stroke="none" stroke-width="0" stroke-linecap="round" stroke-linejoin="round"/><ellipse cx="-10" cy="27" rx="2" ry="2" fill="#FFE2E6" stroke="none" stroke-width="0" stroke-linecap="round" stroke-linejoin="round"/></g></g></g><g transform="translate(167 173)"><g transform="rotate(1.473 0 0)"><g transform="translate(0 0) scale(-1 1) translate(-0 -0)"><path d="M-8,0 C-12,17 -12,35 -24,32 C-33,31 -28,23 -25,24 C-29,12 -44,23 -36,36 C-21,58 1,33 7,12 L9,0 Z" fill="#BE8DD8" stroke="#28304A" stroke-width="2.6" stroke-linecap="round" stroke-linejoin="round"/><path d="M-28,38 Q-15,46 -6,20" fill="none" stroke="#E5B8ED" stroke-width="3" stroke-linecap="round" stroke-linejoin="round"/><ellipse cx="-21" cy="39" rx="2.1" ry="2" fill="#FFE2E6" stroke="none" stroke-width="0" stroke-linecap="round" stroke-linejoin="round"/><ellipse cx="-14" cy="34" rx="2.1" ry="2" fill="#FFE2E6" stroke="none" stroke-width="0" stroke-linecap="round" stroke-linejoin="round"/><ellipse cx="-10" cy="27" rx="2" ry="2" fill="#FFE2E6" stroke="none" stroke-width="0" stroke-linecap="round" stroke-linejoin="round"/></g></g></g></g></g></g></g><g transform="translate(0 4)"><g transform="translate(130 216) scale(0.86 0.86) translate(-130 -216)"><g opacity="1"><g transform="translate(0 0)"><rect x="72" y="169" width="121" height="57" rx="4" fill="#245EA0" stroke="#94D7FF" stroke-width="2.5" stroke-linecap="round" stroke-linejoin="round"/><path d="M80,174 L80,219" fill="none" stroke="#427DB3" stroke-width="0.7" stroke-linecap="round" stroke-linejoin="round"/><path d="M94,174 L94,219" fill="none" stroke="#427DB3" stroke-width="0.7" stroke-linecap="round" stroke-linejoin="round"/><path d="M108,174 L108,219" fill="none" stroke="#427DB3" stroke-width="0.7" stroke-linecap="round" stroke-linejoin="round"/><path d="M122,174 L122,219" fill="none" stroke="#427DB3" stroke-width="0.7" stroke-linecap="round" stroke-linejoin="round"/><path d="M136,174 L136,219" fill="none" stroke="#427DB3" stroke-width="0.7" stroke-linecap="round" stroke-linejoin="round"/><path d="M150,174 L150,219" fill="none" stroke="#427DB3" stroke-width="0.7" stroke-linecap="round" stroke-linejoin="round"/><path d="M164,174 L164,219" fill="none" stroke="#427DB3" stroke-width="0.7" stroke-linecap="round" stroke-linejoin="round"/><path d="M178,174 L178,219" fill="none" stroke="#427DB3" stroke-width="0.7" stroke-linecap="round" stroke-linejoin="round"/><path d="M78,176 L186,176" fill="none" stroke="#427DB3" stroke-width="0.7" stroke-linecap="round" stroke-linejoin="round"/><path d="M78,189 L186,189" fill="none" stroke="#427DB3" stroke-width="0.7" stroke-linecap="round" stroke-linejoin="round"/><path d="M78,202 L186,202" fill="none" stroke="#427DB3" stroke-width="0.7" stroke-linecap="round" stroke-linejoin="round"/><path d="M78,215 L186,215" fill="none" stroke="#427DB3" stroke-width="0.7" stroke-linecap="round" stroke-linejoin="round"/><rect x="69" y="167" width="8" height="62" rx="4" fill="#477FB6" stroke="#A7E2FF" stroke-width="2.5" stroke-linecap="round" stroke-linejoin="round"/><rect x="188" y="168" width="8" height="61" rx="4" fill="#477FB6" stroke="#A7E2FF" stroke-width="2.5" stroke-linecap="round" stroke-linejoin="round"/><path d="M99,199 L127,180 L157,199 M106,195 L106,216 L151,216 L151,195 M121,216 L121,202 L135,202 L135,216" fill="none" stroke="#E2F6FF" stroke-width="1.6" stroke-linecap="round" stroke-linejoin="round"/><path d="M92,222 L164,222" fill="none" stroke="#BEEAFF" stroke-width="1" stroke-linecap="round" stroke-linejoin="round"/><path d="M92,220 L92,224" fill="none" stroke="#BEEAFF" stroke-width="1" stroke-linecap="round" stroke-linejoin="round"/><path d="M164,220 L164,224" fill="none" stroke="#BEEAFF" stroke-width="1" stroke-linecap="round" stroke-linejoin="round"/><path d="M92,162 Q84,182 87,192" fill="none" stroke="#28304A" stroke-width="13" stroke-linecap="round" stroke-linejoin="round"/><path d="M92,162 Q84,182 87,192" fill="none" stroke="#CFA0E3" stroke-width="9" stroke-linecap="round" stroke-linejoin="round"/><ellipse cx="87" cy="193" rx="8" ry="7" fill="#CFA0E3" stroke="#28304A" stroke-width="2" stroke-linecap="round" stroke-linejoin="round"/><g transform="translate(144.44 190.382)"><g transform="rotate(-39.608 0 0)"><rect x="-3" y="-32" width="6" height="30" rx="1" fill="#FFD277" stroke="#805B39" stroke-width="2.5" stroke-linecap="round" stroke-linejoin="round"/><rect x="-3" y="-35" width="6" height="5" rx="1" fill="#F6A0AA" stroke="none" stroke-width="2.5" stroke-linecap="round" stroke-linejoin="round"/><path d="M-3,-2 L3,-2 L0,6 Z" fill="#F2D4B0" stroke="#805B39" stroke-width="1" stroke-linecap="round" stroke-linejoin="round"/><path d="M-1,3 L1,3 L0,6 Z" fill="#28304A" stroke="none" stroke-width="2.5" stroke-linecap="round" stroke-linejoin="round"/></g></g><g transform="translate(138.44 180.382)"><g transform="rotate(-4.755 0 0)"><ellipse cx="0" cy="0" rx="9" ry="7" fill="#CFA0E3" stroke="#28304A" stroke-width="2" stroke-linecap="round" stroke-linejoin="round"/><ellipse cx="-3" cy="3" rx="1.8" ry="1.8" fill="#FFE2E6" stroke="none" stroke-width="2.5" stroke-linecap="round" stroke-linejoin="round"/><ellipse cx="3" cy="3" rx="1.8" ry="1.8" fill="#FFE2E6" stroke="none" stroke-width="2.5" stroke-linecap="round" stroke-linejoin="round"/></g></g><path d="M156,207 L160.534,207" fill="none" stroke="#ECF8FF" stroke-width="1.5" stroke-linecap="round" stroke-linejoin="round"/><path d="M172,216 L172,206 L179,204 L179,213 M169,217 L172,216 M176,214 L179,213" fill="none" stroke="#F4B5F0" stroke-width="1.4" stroke-linecap="round" stroke-linejoin="round"/></g></g></g></g></g></g></svg>