<svg xmlns="http://www.w3.org/2000/svg" viewBox="0 0 260 260"><g transform="translate(0 -7.998)"><g transform="rotate(2 130 205)"><g opacity="0.14"><ellipse cx="130" cy="229" rx="45" ry="6" fill="#141B32" stroke="none" stroke-width="0" stroke-linecap="round" stroke-linejoin="round"/></g><g transform="translate(0 4)"><g transform="translate(130 216) scale(0.86 0.86) translate(-130 -216)"><g transform="translate(0 0)"><g transform="rotate(0.788 130 182)"><g transform="translate(86 157)"><g transform="rotate(-11.152 0 0)"><g transform="translate(0 0) scale(1 1) translate(-0 -0)"><path d="M-8,0 C-12,17 -12,35 -24,32 C-33,31 -28,23 -25,24 C-29,12 -44,23 -36,36 C-21,58 1,33 7,12 L9,0 Z" fill="#9670BA" stroke="#28304A" stroke-width="2.6" stroke-linecap="round" stroke-linejoin="round"/><path d="M-28,38 Q-15,46 -6,20" fill="none" stroke="#E5B8ED" stroke-width="3" stroke-linecap="round" stroke-linejoin="round"/><ellipse cx="-21" cy="39" rx="2.1" ry="2" fill="#FFE2E6" stroke="none" stroke-width="0" stroke-linecap="round" stroke-linejoin="round"/><ellipse cx="-14" cy="34" rx="2.1" ry="2" fill="#FFE2E6" stroke="none" stroke-width="0" stroke-linecap="round" stroke-linejoin="round"/><ellipse cx="-10" cy="27" rx="2" ry="2" fill="#FFE2E6" stroke="none" stroke-width="0" stroke-linecap="round" stroke-linejoin="round"/></g></g></g><g transform="translate(115 157)"><g transform="rotate(4.265 0 0)"><g transform="translate(0 0) scale(-1 1) translate(-0 -0)"><path d="M-8,0 C-12,17 -12,35 -24,32 C-33,31 -28,23 -25,24 C-29,12 -44,23 -36,36 C-21,58 1,33 7,12 L9,0 Z" fill="#9670BA" stroke="#28304A" stroke-width="2.6" stroke-linecap="round" stroke-linejoin="round"/><path d="M-28,38 Q-15,46 -6,20" fill="none" stroke="#E5B8ED" stroke-width="3" stroke-linecap="round" stroke-linejoin="round"/><ellipse cx="-21" cy="39" rx="2.1" ry="2" fill="#FFE2E6" stroke="none" stroke-width="0" stroke-linecap="round" stroke-linejoin="round"/><ellipse cx="-14" cy="34" rx="2.1" ry="2" fill="#FFE2E6" stroke="none" stroke-width="0" stroke-linecap="round" stroke-linejoin="round"/><ellipse cx="-10" cy="27" rx="2" ry="2" fill="#FFE2E6" stroke="none" stroke-width="0" stroke-linecap="round" stroke-linejoin="round"/></g></g></g><g transform="translate(144 157)"><g transform="rotate(-0.812 0 0)"><g transform="translate(0 0) scale(1 1) translate(-0 -0)"><path d="M-8,0 C-12,17 -12,35 -24,32 C-33,31 -28,23 -25,24 C-29,12 -44,23 -36,36 C-21,58 1,33 7,12 L9,0 Z" fill="#9670BA" stroke="#28304A" stroke-width="2.6" stroke-linecap="round" stroke-linejoin="round"/><path d="M-28,38 Q-15,46 -6,20" fill="none" stroke="#E5B8ED" stroke-width="3" stroke-linecap="round" stroke-linejoin="round"/><ellipse cx="-21" cy="39" rx="2.1" ry="2" fill="#FFE2E6" stroke="none" stroke-width="0" stroke-linecap="round" stroke-linejoin="round"/><ellipse cx="-14" cy="34" rx="2.1" ry="2" fill="#FFE2E6" stroke="none" stroke-width="0" stroke-linecap="round" stroke-linejoin="round"/><ellipse cx="-10" cy="27" rx="2" ry="2" fill="#FFE2E6" stroke="none" stroke-width="0" stroke-linecap="round" stroke-linejoin="round"/></g></g></g><g transform="translate(173 157)"><g transform="rotate(3.967 0 0)"><g transform="translate(0 0) scale(-1 1) translate(-0 -0)"><path d="M-8,0 C-12,17 -12,35 -24,32 C-33,31 -28,23 -25,24 C-29,12 -44,23 -36,36 C-21,58 1,33 7,12 L9,0 Z" fill="#9670BA" stroke="#28304A" stroke-width="2.6" stroke-linecap="round" stroke-linejoin="round"/><path d="M-28,38 Q-15,46 -6,20" fill="none" stroke="#E5B8ED" stroke-width="3" stroke-linecap="round" stroke-linejoin="round"/><ellipse cx="-21" cy="39" rx="2.1" ry="2" fill="#FFE2E6" stroke="none" stroke-width="0" stroke-linecap="round" stroke-linejoin="round"/><ellipse cx="-14" cy="34" rx="2.1" ry="2" fill="#FFE2E6" stroke="none" stroke-width="0" stroke-linecap="round" stroke-linejoin="round"/><ellipse cx="-10" cy="27" rx="2" ry="2" fill="#FFE2E6" stroke="none" stroke-width="0" stroke-linecap="round" stroke-linejoin="round"/></g></g></g><path d="M86,134 C83,96 105,83 131,82 C165,81 184,105 179,135 Q192,170 161,181 Q130,194 100,180 Q73,169 86,134 Z" fill="#CFA0E3" stroke="#28304A" stroke-width="3" stroke-linecap="round" stroke-linejoin="round"/><path d="M86,142 Q96,166 123,162 Q156,178 179,143 Q191,170 161,181 Q125,194 100,180 Q78,171 86,142 Z" fill="#AD81CB" stroke="none" stroke-width="0" stroke-linecap="round" stroke-linejoin="round"/><path d="M104,103 Q117,91 139,95" fill="none" stroke="#EFD0F4" stroke-width="4" stroke-linecap="round" stroke-linejoin="round"/><ellipse cx="111" cy="131" rx="10" ry="12" fill="#FFFAEF" stroke="#28304A" stroke-width="1.5" stroke-linecap="round" stroke-linejoin="round"/><ellipse cx="109.5" cy="132" rx="4" ry="6" fill="#28304A" stroke="none" stroke-width="0" stroke-linecap="round" stroke-linejoin="round"/><ellipse cx="109" cy="128" rx="2" ry="2" fill="#FFFFFF" stroke="none" stroke-width="0" stroke-linecap="round" stroke-linejoin="round"/><path d="M105,113 L116,112" fill="none" stroke="#28304A" stroke-width="2" stroke-linecap="round" stroke-linejoin="round"/><ellipse cx="153" cy="131" rx="10" ry="12" fill="#FFFAEF" stroke="#28304A" stroke-width="1.5" stroke-linecap="round" stroke-linejoin="round"/><ellipse cx="154.5" cy="132" rx="4" ry="6" fill="#28304A" stroke="none" stroke-width="0" stroke-linecap="round" stroke-linejoin="round"/><ellipse cx="151" cy="128" rx="2" ry="2" fill="#FFFFFF" stroke="none" stroke-width="0" stroke-linecap="round" stroke-linejoin="round"/><path d="M147,113 L158,112" fill="none" stroke="#28304A" stroke-width="2" stroke-linecap="round" stroke-linejoin="round"/><ellipse cx="132" cy="151" rx="5" ry="7" fill="#28304A" stroke="none" stroke-width="0" stroke-linecap="round" stroke-linejoin="round"/><path d="M83,132 Q75,72 130,72 Q188,71 185,132" fill="none" stroke="#28304A" stroke-width="10" stroke-linecap="round" stroke-linejoin="round"/><path d="M83,126 Q82,78 130,78 Q180,77 184,128" fill="none" stroke="#72D5CB" stroke-width="5" stroke-linecap="round" stroke-linejoin="round"/><rect x="75" y="115" width="19" height="33" rx="8" fill="#3D4058" stroke="#28304A" stroke-width="2.4" stroke-linecap="round" stroke-linejoin="round"/><rect x="172" y="115" width="19" height="33" rx="8" fill="#3D4058" stroke="#28304A" stroke-width="2.4" stroke-linecap="round" stroke-linejoin="round"/><rect x="77" y="121" width="9" height="20" rx="4" fill="#81E3D2" stroke="none" stroke-width="2.4" stroke-linecap="round" stroke-linejoin="round"/><rect x="181" y="121" width="8" height="20" rx="4" fill="#81E3D2" stroke="none" stroke-width="2.4" stroke-linecap="round" stroke-linejoin="round"/><path d="M182,143 Q183,163 152,159" fill="none" stroke="#28304A" stroke-width="2.5" stroke-linecap="round" stroke-linejoin="round"/><ellipse cx="151" cy="159" rx="5" ry="3" fill="#FFE19B" stroke="#28304A" stroke-width="2.4" stroke-linecap="round" stroke-linejoin="round"/><g transform="translate(153 104)"><g transform="translate(0 0) scale(0.7 0.7) translate(-0 -0)"><path d="M0,-10 L3,-3 L10,0 L3,3 L0,10 L-3,3 L-10,0 L-3,-3 Z" fill="#FFE098" stroke="none" stroke-width="0" stroke-linecap="round" stroke-linejoin="round"/></g></g><g transform="translate(92 173)"><g transform="rotate(-10.831 0 0)"><g transform="translate(0 0) scale(1 1) translate(-0 -0)"><path d="M-8,0 C-12,17 -12,35 -24,32 C-33,31 -28,23 -25,24 C-29,12 -44,23 -36,36 C-21,58 1,33 7,12 L9,0 Z" fill="#BE8DD8" stroke="#28304A" stroke-width="2.6" stroke-linecap="round" stroke-linejoin="round"/><path d="M-28,38 Q-15,46 -6,20" fill="none" stroke="#E5B8ED" stroke-width="3" stroke-linecap="round" stroke-linejoin="round"/><ellipse cx="-21" cy="39" rx="2.1" ry="2" fill="#FFE2E6" stroke="none" stroke-width="0" stroke-linecap="round" stroke-linejoin="round"/><ellipse cx="-14" cy="34" rx="2.1" ry="2" fill="#FFE2E6" stroke="none" stroke-width="0" stroke-linecap="round" stroke-linejoin="round"/><ellipse cx="-10" cy="27" rx="2" ry="2" fill="#FFE2E6" stroke="none" stroke-width="0" stroke-linecap="round" stroke-linejoin="round"/></g></g></g><g transform="translate(117 173)"><g transform="rotate(15.091 0 0)"><g transform="translate(0 0) scale(-1 1) translate(-0 -0)"><path d="M-8,0 C-12,17 -12,35 -24,32 C-33,31 -28,23 -25,24 C-29,12 -44,23 -36,36 C-21,58 1,33 7,12 L9,0 Z" fill="#BE8DD8" stroke="#28304A" stroke-width="2.6" stroke-linecap="round" stroke-linejoin="round"/><path d="M-28,38 Q-15,46 -6,20" fill="none" stroke="#E5B8ED" stroke-width="3" stroke-linecap="round" stroke-linejoin="round"/><ellipse cx="-21" cy="39" rx="2.1" ry="2" fill="#FFE2E6" stroke="none" stroke-width="0" stroke-linecap="round" stroke-linejoin="round"/><ellipse cx="-14" cy="34" rx="2.1" ry="2" fill="#FFE2E6" stroke="none" stroke-width="0" stroke-linecap="round" stroke-linejoin="round"/><ellipse cx="-10" cy="27" rx="2" ry="2" fill="#FFE2E6" stroke="none" stroke-width="0" stroke-linecap="round" stroke-linejoin="round"/></g></g></g><g transform="translate(142 173)"><g transform="rotate(-12.832 0 0)"><g transform="translate(0 0) scale(1 1) translate(-0 -0)"><path d="M-8,0 C-12,17 -12,35 -24,32 C-33,31 -28,23 -25,24 C-29,12 -44,23 -36,36 C-21,58 1,33 7,12 L9,0 Z" fill="#BE8DD8" stroke="#28304A" stroke-width="2.6" stroke-linecap="round" stroke-linejoin="round"/><path d="M-28,38 Q-15,46 -6,20" fill="none" stroke="#E5B8ED" stroke-width="3" stroke-linecap="round" stroke-linejoin="round"/><ellipse cx="-21" cy="39" rx="2.1" ry="2" fill="#FFE2E6" stroke="none" stroke-width="0" stroke-linecap="round" stroke-linejoin="round"/><ellipse cx="-14" cy="34" rx="2.1" ry="2" fill="#FFE2E6" stroke="none" stroke-width="0" stroke-linecap="round" stroke-linejoin="round"/><ellipse cx="-10" cy="27" rx="2" ry="2" fill="#FFE2E6" stroke="none" stroke-width="0" stroke-linecap="round" stroke-linejoin="round"/></g></g></g><g transform="translate(167 173)"><g transform="rotate(6.13 0 0)"><g transform="translate(0 0) scale(-1 1) translate(-0 -0)"><path d="M-8,0 C-12,17 -12,35 -24,32 C-33,31 -28,23 -25,24 C-29,12 -44,23 -36,36 C-21,58 1,33 7,12 L9,0 Z" fill="#BE8DD8" stroke="#28304A" stroke-width="2.6" stroke-linecap="round" stroke-linejoin="round"/><path d="M-28,38 Q-15,46 -6,20" fill="none" stroke="#E5B8ED" stroke-width="3" stroke-linecap="round" stroke-linejoin="round"/><ellipse cx="-21" cy="39" rx="2.1" ry="2" fill="#FFE2E6" stroke="none" stroke-width="0" stroke-linecap="round" stroke-linejoin="round"/><ellipse cx="-14" cy="34" rx="2.1" ry="2" fill="#FFE2E6" stroke="none" stroke-width="0" stroke-linecap="round" stroke-linejoin="round"/><ellipse cx="-10" cy="27" rx="2" ry="2" fill="#FFE2E6" stroke="none" stroke-width="0" stroke-linecap="round" stroke-linejoin="round"/></g></g></g></g></g></g></g><g transform="translate(0 4)"><g transform="translate(130 216) scale(0.86 0.86) translate(-130 -216)"><g opacity="1"><g transform="translate(0 -4)"><path d="M92,177 Q87,157 108,154" fill="none" stroke="#28304A" stroke-width="13" stroke-linecap="round" stroke-linejoin="round"/><path d="M92,177 Q87,157 108,154" fill="none" stroke="#CFA0E3" stroke-width="9" stroke-linecap="round" stroke-linejoin="round"/><ellipse cx="112" cy="154" rx="9" ry="7" fill="#CFA0E3" stroke="#28304A" stroke-width="2" stroke-linecap="round" stroke-linejoin="round"/></g><g transform="translate(204 100.22)"><g transform="rotate(-1.663 0 0)"><path d="M-17,-7 L-8,-20 L10,-20 L19,-7 L0,19 Z" fill="#78E6ED" stroke="#E2FFF7" stroke-width="2.5" stroke-linecap="round" stroke-linejoin="round"/><path d="M-17,-7 L19,-7 M-8,-20 L-5,-7 L0,19 L6,-7 L10,-20" fill="none" stroke="#EDFFFA" stroke-width="1.4" stroke-linecap="round" stroke-linejoin="round"/></g></g><g transform="translate(197 65)"><g transform="translate(0 0) scale(0.7 0.7) translate(-0 -0)"><path d="M0,-10 L3,-3 L10,0 L3,3 L0,10 L-3,3 L-10,0 L-3,-3 Z" fill="#FFE5A1" stroke="none" stroke-width="2.5" stroke-linecap="round" stroke-linejoin="round"/></g></g><g transform="translate(227 114)"><g transform="translate(0 0) scale(0.6 0.6) translate(-0 -0)"><path d="M0,-10 L3,-3 L10,0 L3,3 L0,10 L-3,3 L-10,0 L-3,-3 Z" fill="#D1FFF1" stroke="none" stroke-width="2.5" stroke-linecap="round" stroke-linejoin="round"/></g></g><g transform="translate(56 91)"><g transform="translate(0 0) scale(0.8 0.8) translate(-0 -0)"><path d="M0,-10 L3,-3 L10,0 L3,3 L0,10 L-3,3 L-10,0 L-3,-3 Z" fill="#FFE5A1" stroke="none" stroke-width="2.5" stroke-linecap="round" stroke-linejoin="round"/></g></g><g transform="translate(67 68)"><g transform="translate(0 0) scale(0.4 0.4) translate(-0 -0)"><path d="M0,-10 L3,-3 L10,0 L3,3 L0,10 L-3,3 L-10,0 L-3,-3 Z" fill="#E5D1FF" stroke="none" stroke-width="2.5" stroke-linecap="round" stroke-linejoin="round"/></g></g><path d="M57,121 L57,132" fill="none" stroke="#FFE5A1" stroke-width="3" stroke-linecap="round" stroke-linejoin="round"/><ellipse cx="57" cy="139" rx="2" ry="2" fill="#FFE5A1" stroke="none" stroke-width="2.5" stroke-linecap="round" stroke-linejoin="round"/></g></g></g></g></g></svg>